<?xml version="1.0" encoding="utf-8"?><!-- Uploaded to: SVG Repo, www.svgrepo.com, Generator: SVG Repo Mixer Tools -->
<svg width="20px" height="20px" viewBox="0 0 24 24" fill="none" xmlns="http://www.w3.org/2000/svg">
    <defs>
        <linearGradient id="grad1" x1="0%" x2="0%" y1="0%" y2="100%">
            <stop offset="0%" stop-color="#ffc74e"/> 
            <stop offset="100%" stop-color="#7a1117"/>
        </linearGradient>
    </defs>
    <path d="M21 10C21 12.2091 16.9706 14 12 14M21 10C21 7.79086 16.9706 6 12 6C7.02944 6 3 7.79086 3 10M21 10V16C21 18.2091 16.9706 20 12 20M12 14C7.02944 14 3 12.2091 3 10M12 14V20M3 10V16C3 18.2091 7.02944 20 12 20M7 19.3264V13.3264M17 19.3264V13.3264M12 10L20 4" stroke="url(#grad1)" stroke-width="2" stroke-linecap="round" stroke-linejoin="round"/>
</svg>