<?xml version="1.0" encoding="utf-8"?><!-- Uploaded to: SVG Repo, www.svgrepo.com, Generator: SVG Repo Mixer Tools -->
<svg width="78px" height="78px" viewBox="0 0 24 24" fill="none" xmlns="http://www.w3.org/2000/svg">
    <defs>
        <linearGradient id="grad3" x1="0%" x2="0%" y1="0%" y2="100%">
          <stop offset="0%" stop-color="#769ec0"/> 
          <stop offset="100%" stop-color="#071125"/>
        </linearGradient>
    </defs>
    <path d="M9 19C9 20.1046 7.65685 21 6 21C4.34315 21 3 20.1046 3 19C3 17.8954 4.34315 17 6 17C7.65685 17 9 17.8954 9 19ZM9 19V5L21 3V17M21 17C21 18.1046 19.6569 19 18 19C16.3431 19 15 18.1046 15 17C15 15.8954 16.3431 15 18 15C19.6569 15 21 15.8954 21 17ZM9 9L21 7" stroke="url(#grad3)" stroke-width="2" stroke-linecap="round" stroke-linejoin="round"/>
</svg>